# xmcd
#
# Track frame offsets:
# 150
# 14043
# 29079
# 46695
# 65820
# 80723
# 103416
# 118705
# 137666
# 152694
# 174256
# 189860
# 207604
# 223154
# 241271
# 257195
# 273306
# 293640
# 310919
# 327017
#
# Disc length: 4652 seconds
#
#
# Revision: 2
# Processed by: cddbd v1.5.2PL0 Copyright (c) Steve Scherf et al.
# Submitted via: FreeRIP 2.951 
#
DISCID=30122a14
DTITLE=John Lennon - Legend
DYEAR=1900
DGENRE=Rock
TTITLE0=John Lennon - Imagine
TTITLE1=John Lennon - Instant Karma!
TTITLE2=John Lennon - Mother
TTITLE3=John Lennon - Jealous Guy
TTITLE4=John Lennon - Power To The People
TTITLE5=John Lennon - Cold Turkey
TTITLE6=John Lennon - Love
TTITLE7=John Lennon - Mind Games
TTITLE8=John Lennon - Whatever Gets You Through The Night
TTITLE9=John Lennon - Dream
TTITLE10=John Lennon - Stand By Me
TTITLE11=John Lennon - Just Like Starting Over
TTITLE12=John Lennon - Woman
TTITLE13=John Lennon - Beautiful Boy
TTITLE14=John Lennon - Watching The Wheels
TTITLE15=John Lennon - Nobody Told Me
TTITLE16=John Lennon - Borrowed Time
TTITLE17=John Lennon - Working Class Hero
TTITLE18=John Lennon - Happy Xmas
TTITLE19=John Lennon - Give Peace A Chance
EXTD=
EXTT0=
EXTT1=
EXTT2=
EXTT3=
EXTT4=
EXTT5=
EXTT6=
EXTT7=
EXTT8=
EXTT9=
EXTT10=
EXTT11=
EXTT12=
EXTT13=
EXTT14=
EXTT15=
EXTT16=
EXTT17=
EXTT18=
EXTT19=
PLAYORDER=
